<svg id="Layer_1" data-name="Layer 1" xmlns="http://www.w3.org/2000/svg" viewBox="0 0 512 481.57"><title>administration</title><path d="M210.46,251.2h90.26v67.53H210.46Z" transform="translate(0 -15)"/><path d="M210.46,348.81h90.26v67.52H210.46Z" transform="translate(0 -15)"/><path d="M330.81,348.81h90.92v67.52H330.81Z" transform="translate(0 -15)"/><path d="M90.27,251.2h90.1v67.53H90.27Z" transform="translate(0 -15)"/><path d="M330.81,251.2h90.92v67.53H330.81Z" transform="translate(0 -15)"/><path d="M0,496.57H512V181H0ZM451.82,221.11V446.42H60.18V221.11Z" transform="translate(0 -15)"/><path d="M90.27,348.81h90.1v67.52H90.27Z" transform="translate(0 -15)"/><path d="M512,50.61H426.15V116.3H396.06V50.61H325.85V116.3H295.76V50.61H224.57V116.3H194.49V50.61H124.27V116.3H94.19V50.61H0v100.3H512Z" transform="translate(0 -15)"/><path d="M396.06,15h30.09V50.53H396.06Z" transform="translate(0 -15)"/><path d="M295.76,15h30.09V50.53H295.76Z" transform="translate(0 -15)"/><path d="M94.19,15h30.08V50.53H94.19Z" transform="translate(0 -15)"/><path d="M194.49,15h30.08V50.53H194.49Z" transform="translate(0 -15)"/></svg>