<svg height="456pt" viewBox="-4 0 456 456" width="456pt" xmlns="http://www.w3.org/2000/svg"><path d="m184 152h32v-61.015625l-32 32zm0 0"/><path d="m232 152h32v-29.015625l-32-32zm0 0"/><path d="m232 168h32v40h-32zm0 0"/><path d="m184 168h32v40h-32zm0 0"/><path d="m104 224h32v32h-32zm0 0"/><path d="m56 224h32v32h-32zm0 0"/><path d="m218.34375 18.34375c1.5-1.503906 3.535156-2.347656 5.660156-2.347656s4.160156.84375 5.660156 2.347656l93.535157 93.65625h121.257812l-42-112h-356.914062l-42 112h121.144531zm0 0"/><path d="m56 176h32v32h-32zm0 0"/><path d="m104 176h32v32h-32zm0 0"/><path d="m312 224h32v32h-32zm0 0"/><path d="m136 336v88h80v-112h-56c-13.253906 0-24 10.746094-24 24zm56 24h16v16h-16zm0 0"/><path d="m424 424v-296h-104.136719c-2.125 0-4.164062-.847656-5.664062-2.351562l-90.199219-90.328126-90.34375 90.335938c-1.5 1.5-3.535156 2.34375-5.65625 2.34375h-104v296h96v-88c0-22.089844 17.910156-40 40-40h128c22.089844 0 40 17.910156 40 40v88zm-272-160c0 4.417969-3.582031 8-8 8h-96c-4.417969 0-8-3.582031-8-8v-96c0-4.417969 3.582031-8 8-8h96c4.417969 0 8 3.582031 8 8zm128-48c0 4.417969-3.582031 8-8 8h-96c-4.417969 0-8-3.582031-8-8v-96c0-2.121094.84375-4.15625 2.34375-5.65625l48-48c3.125-3.121094 8.1875-3.121094 11.3125 0l48 48c1.5 1.5 2.34375 3.535156 2.34375 5.65625zm24 56c-4.417969 0-8-3.582031-8-8v-96c0-4.417969 3.582031-8 8-8h96c4.417969 0 8 3.582031 8 8v96c0 4.417969-3.582031 8-8 8zm0 0"/><path d="m0 440h448v16h-448zm0 0"/><path d="m312 176h32v32h-32zm0 0"/><path d="m232 312v112h80v-88c0-13.253906-10.746094-24-24-24zm24 64h-16v-16h16zm0 0"/><path d="m360 224h32v32h-32zm0 0"/><path d="m360 176h32v32h-32zm0 0"/></svg>