<svg id="Layer_1" data-name="Layer 1" xmlns="http://www.w3.org/2000/svg" viewBox="0 0 484 463.95"><defs><style>.cls-1{fill:#d3d3d3;}</style></defs><title>buildings</title><path class="cls-1" d="M308,304H420v16H308Z"/><path class="cls-1" d="M308,336H420v16H308Z"/><path class="cls-1" d="M92,216h40v40H92Z"/><path class="cls-1" d="M308,400H420v32H308Z"/><path class="cls-1" d="M92,160h40v40H92Z"/><path class="cls-1" d="M460,432V240H260V432h32V264a8,8,0,0,1,8-8H428a8,8,0,0,1,8,8V432Z"/><path class="cls-1" d="M308,368H420v16H308Z"/><path class="cls-1" d="M308,272H420v16H308Z"/><path class="cls-1" d="M148,216h40v40H148Z"/><path class="cls-1" d="M260,192H468v32H260Z"/><path class="cls-1" d="M116,320a8,8,0,0,0-8,8V432h64V328a8,8,0,0,0-8-8Zm48,56H148V360h16Z"/><path class="cls-1" d="M20.05,448H468v16H20.05Z"/><path class="cls-1" d="M244,432V108.63L140,49.21l-104,59.42V432H92V328a24,24,0,0,1,24-24h48a24,24,0,0,1,24,24V432ZM84,272a8,8,0,0,1-8-8V152a8,8,0,0,1,8-8H196a8,8,0,0,1,8,8V264a8,8,0,0,1-8,8Z"/><path class="cls-1" d="M148,160h40v40H148Z"/><path class="cls-1" d="M444,72a32,32,0,1,1-32-32A32,32,0,0,1,444,72Z"/><path class="cls-1" d="M404,0h16V24H404Z"/><path class="cls-1" d="M355.45,26.75l11.31-11.32,17,17-11.3,11.31Z"/><path class="cls-1" d="M340,64h24V80H340Z"/><path class="cls-1" d="M355.45,117.24l17-17,11.31,11.31-17,17Z"/><path class="cls-1" d="M404,120h16v24H404Z"/><path class="cls-1" d="M440.28,111.59l11.31-11.31,17,17-11.31,11.32Z"/><path class="cls-1" d="M460,64h24V80H460Z"/><path class="cls-1" d="M440.28,32.4l17-17,11.31,11.31-17,17Z"/><path class="cls-1" d="M272,102.89l8.11-13.79-136-80a8,8,0,0,0-8.12,0L0,89.1l8.11,13.79L140,25.28Z"/></svg>