<svg id="Layer_1" data-name="Layer 1" xmlns="http://www.w3.org/2000/svg" viewBox="0 0 44 44"><defs><style>.cls-1{fill:#ef6461;}</style></defs><title>checked-red</title><path class="cls-1" d="M22,0a21.94,21.94,0,1,0,.13,0ZM34.7,15.1h0l-16,16.6a.89.89,0,0,1-.7.3.77.77,0,0,1-.7-.3L9.5,23.3l-.2-.2a1,1,0,0,1,0-1.37l0,0,1.4-1.4a1,1,0,0,1,1.37,0l0,0,.1.1,5.5,5.9a.49.49,0,0,0,.68,0l0,0L31.8,12.4h.1a1,1,0,0,1,1.37,0l0,0,1.4,1.4a.85.85,0,0,1,.1,1.2A.47.47,0,0,1,34.7,15.1Z" transform="translate(0 0)"/></svg>