<svg id="Layer_1" data-name="Layer 1" xmlns="http://www.w3.org/2000/svg" viewBox="0 0 639.38 639.06"><defs><style>.cls-1{fill:#d3d3d3;}</style></defs><title>cityscape</title><path class="cls-1" d="M46,296.7H103v22.83H46Z"/><path class="cls-1" d="M34.55,342.35H.32V639.06H148.67V342.35ZM68.78,616.23H35.69a11.41,11.41,0,0,1,0-22.82H68.78a11.41,11.41,0,1,1,0,22.82Zm0-45.65H35.69a11.41,11.41,0,1,1,0-22.82H68.78a11.41,11.41,0,1,1,0,22.82Zm0-45.64H35.69a11.42,11.42,0,0,1,0-22.83H68.78a11.42,11.42,0,1,1,0,22.83Zm0-45.65H35.69a11.42,11.42,0,0,1,0-22.83H68.78a11.42,11.42,0,1,1,0,22.83Zm0-45.65H35.69a11.41,11.41,0,0,1,0-22.82H68.78a11.41,11.41,0,1,1,0,22.82Zm0-45.64H35.69a11.42,11.42,0,0,1,0-22.83H68.78a11.42,11.42,0,1,1,0,22.83Zm45.65,228.23a11.41,11.41,0,1,1,11.42-11.41A11.41,11.41,0,0,1,114.43,616.23Zm0-45.65a11.41,11.41,0,1,1,11.42-11.4A11.41,11.41,0,0,1,114.43,570.58Zm0-45.64a11.42,11.42,0,1,1,11.42-11.42A11.41,11.41,0,0,1,114.43,524.94Zm0-45.65a11.42,11.42,0,1,1,11.42-11.41A11.41,11.41,0,0,1,114.43,479.29Zm0-45.65a11.41,11.41,0,1,1,11.42-11.41A11.41,11.41,0,0,1,114.43,433.64Zm11.42-57.06a11.42,11.42,0,1,1-11.42-11.41A11.42,11.42,0,0,1,125.85,376.58Z"/><path class="cls-1" d="M274.2,273.88H171.49V639.06h115l-.88-365.18ZM217.14,604.82a11.42,11.42,0,0,1-22.83,0V582a11.42,11.42,0,1,1,22.83,0Zm0-68.47a11.42,11.42,0,0,1-22.83,0V513.52a11.42,11.42,0,0,1,22.83,0Zm0-68.47a11.42,11.42,0,0,1-22.83,0V445.06a11.42,11.42,0,1,1,22.83,0Zm0-68.47a11.42,11.42,0,0,1-22.83,0V376.58a11.42,11.42,0,0,1,22.83,0Zm0-68.47a11.42,11.42,0,0,1-22.83,0V308.11a11.42,11.42,0,0,1,22.83,0Zm45.65,273.88a11.42,11.42,0,0,1-22.83,0V582a11.42,11.42,0,1,1,22.83,0Zm0-68.47a11.42,11.42,0,0,1-22.83,0V513.52a11.42,11.42,0,0,1,22.83,0Zm0-68.47a11.42,11.42,0,0,1-22.83,0V445.06a11.42,11.42,0,1,1,22.83,0Zm0-68.47a11.42,11.42,0,0,1-22.83,0V376.58a11.42,11.42,0,0,1,22.83,0Zm0-68.47a11.42,11.42,0,0,1-22.83,0V308.11a11.42,11.42,0,0,1,22.83,0Z"/><path class="cls-1" d="M184.71,251.06H272.4A47.94,47.94,0,0,0,240,218.51V136.94a11.41,11.41,0,1,0-22.82,0v81.57A47.91,47.91,0,0,0,184.71,251.06Z"/><path class="cls-1" d="M376.91,342.35H354.08V639.06h34.23V593.41a22.83,22.83,0,0,1,22.83-22.83H434a22.83,22.83,0,0,1,22.83,22.83v45.65H491V342.35Zm22.82,194a11.41,11.41,0,1,1-22.82,0V513.52a11.41,11.41,0,1,1,22.82,0Zm0-68.47a11.41,11.41,0,1,1-22.82,0V445.06a11.41,11.41,0,1,1,22.82,0Zm0-68.47a11.41,11.41,0,1,1-22.82,0V376.58a11.41,11.41,0,1,1,22.82,0ZM468.2,536.35a11.41,11.41,0,1,1-22.82,0V513.52a11.41,11.41,0,0,1,22.82,0Zm0-68.47a11.41,11.41,0,0,1-22.82,0V445.06a11.41,11.41,0,1,1,22.82,0Zm0-68.47a11.41,11.41,0,1,1-22.82,0V376.58a11.41,11.41,0,1,1,22.82,0Z"/><path class="cls-1" d="M639.38,422.23H513.84V639.06H639.38ZM559.49,604.82H548.08a11.41,11.41,0,0,1,0-22.82h11.41a11.41,11.41,0,0,1,0,22.82Zm0-45.64H548.08a11.42,11.42,0,0,1,0-22.83h11.41a11.42,11.42,0,0,1,0,22.83Zm0-45.66H548.08a11.41,11.41,0,0,1,0-22.82h11.41a11.41,11.41,0,0,1,0,22.82Zm0-45.64H548.08a11.41,11.41,0,1,1,0-22.82h11.41a11.41,11.41,0,1,1,0,22.82Zm53.75,133.63a11.57,11.57,0,1,1,3.31-8.1A12,12,0,0,1,613.24,601.51Zm0-45.65a11.46,11.46,0,1,1-16.2-16.2,11.59,11.59,0,0,1,10.38-3.08,7,7,0,0,1,2.05.68,8.63,8.63,0,0,1,2.06,1,17.38,17.38,0,0,1,1.71,1.37A11.55,11.55,0,0,1,613.24,555.86Zm3.09-51.46a7.11,7.11,0,0,1-.7,2.05,8.18,8.18,0,0,1-1,2.05l-1.37,1.72-1.71,1.37a8.6,8.6,0,0,1-2.06,1,7,7,0,0,1-2.05.68,14.56,14.56,0,0,1-2.28.23,12,12,0,0,1-8.1-3.3l-1.37-1.72a8.57,8.57,0,0,1-1-2.05,7.4,7.4,0,0,1-.69-2.05,17.57,17.57,0,0,1-.22-2.29,11.59,11.59,0,0,1,.91-4.34A11.94,11.94,0,0,1,597,494a11.5,11.5,0,0,1,10.38-3.08,7,7,0,0,1,2.05.68,9,9,0,0,1,2.06,1,17.38,17.38,0,0,1,1.71,1.37,12,12,0,0,1,3.31,8.1A19.5,19.5,0,0,1,616.33,504.4Zm-.7-43.6a13,13,0,0,1-2.39,3.77,12,12,0,0,1-8.1,3.31,11.32,11.32,0,0,1-4.33-.92,11.62,11.62,0,0,1-3.77-2.39,12,12,0,0,1-3.31-8.11,11.54,11.54,0,0,1,.91-4.33,10.51,10.51,0,0,1,2.4-3.76,11.93,11.93,0,0,1,16.2,0,10.35,10.35,0,0,1,2.39,3.76A10.65,10.65,0,0,1,615.63,460.8Z"/><path class="cls-1" d="M606.28,379.66a9.24,9.24,0,0,0-6.79-3.08h-45.9a9.2,9.2,0,0,0-6.7,3l-18.35,19.83h96.08Z"/><path class="cls-1" d="M424.16,6.42,390.38,45.64h65.38Z"/><path class="cls-1" d="M468.2,182.59H376.91V319.53H468.2ZM434,285.29a11.41,11.41,0,1,1-22.82,0V262.47a11.41,11.41,0,1,1,22.82,0Zm-11.41-57.06A11.41,11.41,0,1,1,434,216.82,11.41,11.41,0,0,1,422.55,228.23Z"/><path class="cls-1" d="M456.79,68.47H388.31v91.29h68.48ZM434,125.53a11.41,11.41,0,1,1-22.82,0V102.71a11.41,11.41,0,1,1,22.82,0Z"/><path class="cls-1" d="M411.13,593.41H434v45.65H411.13Z"/><path class="cls-1" d="M194.31,85.59a28.53,28.53,0,0,0-28.52-28.54A27.31,27.31,0,0,0,153,60.17a28.14,28.14,0,0,0-15.55,23.07,11.36,11.36,0,0,1-.78,3c-.1.25-.11.54-.21.77a11.2,11.2,0,0,1-1.91,2.85c-.16.25-.34.5-.53.74a11.75,11.75,0,0,1-2.66,1.8,9.72,9.72,0,0,1-.93.6,11.14,11.14,0,0,1-4.36.88H126a11.4,11.4,0,0,1-11.41-11.4c0-.2.09-.36.1-.54a9.92,9.92,0,0,1,.14-1.55A51,51,0,0,1,136.93,43.2c.08-1.1.33-2.12.33-3.26a39.91,39.91,0,0,0-79.69-3.22,6.22,6.22,0,0,1-.3,1.08c-.07.37,0,.69-.08,1a9.48,9.48,0,0,1-.5,1,10.94,10.94,0,0,1-1.14,2.2,11.56,11.56,0,0,1-1.14,1.47,10.48,10.48,0,0,1-1.85,1.6,11.53,11.53,0,0,1-1.64.93,9.6,9.6,0,0,1-2.21.75,11.6,11.6,0,0,1-2.2.26c-.41.07-.81.12-1.22.15a9.65,9.65,0,0,1-1-.3c-.36-.06-.72,0-1.07-.08a34.23,34.23,0,1,0-8.62,67.28H165.79A28.52,28.52,0,0,0,194.31,85.59Z"/><path class="cls-1" d="M639.38,39.94A39.95,39.95,0,1,1,599.44,0,39.94,39.94,0,0,1,639.38,39.94Z"/></svg>