<svg id="Layer_1" data-name="Layer 1" xmlns="http://www.w3.org/2000/svg" viewBox="0 0 79.4 77"><defs><style>.cls-1{fill:#ef6461;}</style></defs><title>communication-red</title><g id="Group_966" data-name="Group 966"><path id="Path_363" data-name="Path 363" class="cls-1" d="M47.8,0C30.3,0,16.2,12.4,16.2,27.7S30.3,55.5,47.8,55.5A34.89,34.89,0,0,0,65,51a18.59,18.59,0,0,0,12,2.2,1,1,0,0,0,.8-1c-.1-.2-.2-.5-.4-.6a12.39,12.39,0,0,1-5-6.5,25.13,25.13,0,0,0,7-17.4C79.4,12.4,65.2,0,47.8,0ZM66.4,39.4H44.9V34.5H66.4Zm0-9.2H29.2V25.3H66.4Zm0-9.3H29.2V16H66.4Zm-18.6,40,3.6-.2C48.1,70.1,38.1,77,26.3,77A28.2,28.2,0,0,1,12,73.3,15.52,15.52,0,0,1,1.9,75.1a.81.81,0,0,1-.6-.8.68.68,0,0,1,.4-.5,11.1,11.1,0,0,0,4.1-5.4A21.08,21.08,0,0,1,0,53.9C0,46,4.6,39,11.5,34.8,15.2,49.7,30.1,60.9,47.8,60.9Z" transform="translate(0 0)"/></g></svg>