<?xml version="1.0" encoding="utf-8"?>
<!-- Generator: Adobe Illustrator 23.0.1, SVG Export Plug-In . SVG Version: 6.00 Build 0)  -->
<svg version="1.1" id="Layer_1" xmlns="http://www.w3.org/2000/svg" xmlns:xlink="http://www.w3.org/1999/xlink" x="0px" y="0px"
	 viewBox="0 0 393.7 512" style="enable-background:new 0 0 393.7 512;" xml:space="preserve">
<style type="text/css">
	.st0{fill:#B3BDF4;}
</style>
<title>compass</title>
<path class="st0" d="M121.9,166c0,41.4,33.6,75,75,75s75-33.6,75-75s-33.6-75-75-75C155.5,91,121.9,124.6,121.9,166z M196.9,144.8
	l21.2,21.2l-21.2,21.2L175.6,166L196.9,144.8z"/>
<path class="st0" d="M368.8,393.1L277,233c-13.1,15.7-30.6,27.2-50.2,33.1L367.7,512l26-15l-25.3-44.6
	C378.8,434.1,379.6,411.7,368.8,393.1z"/>
<path class="st0" d="M226.9,65.9V0h-60v65.9c9.7-3.1,19.8-4.7,30-4.9C207,61.1,217.2,62.8,226.9,65.9z"/>
<path class="st0" d="M26,512l140.9-245.9c-19.6-5.9-37-17.4-50.2-33.1L24.9,393.1C14,411.5,14.1,434.5,25,452.9L0,497L26,512z"/>
</svg>
