<?xml version="1.0" encoding="utf-8"?>
<!-- Generator: Adobe Illustrator 23.0.1, SVG Export Plug-In . SVG Version: 6.00 Build 0)  -->
<svg version="1.1" id="Layer_1" xmlns="http://www.w3.org/2000/svg" xmlns:xlink="http://www.w3.org/1999/xlink" x="0px" y="0px"
	 viewBox="0 0 512 512" style="enable-background:new 0 0 512 512;" xml:space="preserve">
<style type="text/css">
	.st0{fill:#F7F5F5;}
</style>
<title>dimension</title>
<path class="st0" d="M271,271h60v121h-60V271z"/>
<path class="st0" d="M451,392V201.8l35.3,34.7l21.3-21.1L303.3,0L94.5,215.3l21.1,21.3l35.5-34.1V392h90V241h120v151H451z M301,211
	c-16.6,0-30-13.4-30-30s13.4-30,30-30s30,13.4,30,30C331,197.6,317.6,211,301,211z"/>
<path class="st0" d="M450.2,443.2l7.2,8.8H145.7l7.2-8.8L131.6,422L91,467l40.6,45l21.2-21.2l-7.2-8.8h311.7l-7.2,8.8l21.2,21.2
	l40.6-45l-40.6-45L450.2,443.2z"/>
<path class="st0" d="M21.2,360.2L0,381.4L45,422l45-40.6l-21.2-21.2l-8.8,7.2V85.7l8.8,7.2L90,71.6L45,31L0,71.6l21.2,21.2l8.8-7.2
	v281.7L21.2,360.2z"/>
</svg>
