<svg id="Layer_1" data-name="Layer 1" xmlns="http://www.w3.org/2000/svg" viewBox="0 0 632.96 639.38"><defs><style>.cls-1{fill:#d3d3d3;}</style></defs><title>fountain</title><path class="cls-1" d="M272.43,251.18h88.1a45.46,45.46,0,0,1-88.1,0ZM385,114.18a34.25,34.25,0,0,0-34.26,34.25v79.92H327.9V148.43a57.09,57.09,0,1,1,114.18,0H419.23A34.24,34.24,0,0,0,385,114.18ZM248,0a102.28,102.28,0,0,1,79,37.14A127.2,127.2,0,0,0,307.56,49.7a79.84,79.84,0,0,0-139.51,53.06H145.22A102.88,102.88,0,0,1,248,0Zm0,68.5a34.26,34.26,0,0,0-34.26,34.26H190.89A57,57,0,0,1,291,65.4,126.48,126.48,0,0,0,277,84.69,34.16,34.16,0,0,0,248,68.5Zm34.25,125.6V148.43a102.76,102.76,0,1,1,205.51,0H464.91A79.72,79.72,0,0,0,356.76,73.75a8,8,0,0,0-.82.3,80,80,0,0,0-50.87,74.38v79.92H282.23Zm11.42,110.17a67.19,67.19,0,0,0,45.66,0v38.25H293.65ZM65.3,388.19V376.78a11.41,11.41,0,0,1,11.41-11.42H556.25a11.41,11.41,0,0,1,11.41,11.42v11.41a11.41,11.41,0,0,1-11.41,11.42H76.71A11.41,11.41,0,0,1,65.3,388.19Zm49.35,34.25H518.31c-26.65,58.91-86.48,58.53-167.13,57.42-.16,0-.28-.1-.45-.1s-.24.07-.39.08h-.51c-21.77-.3-44.92-.3-66.7,0h-.52c-.13,0-.24-.08-.38-.08s-.29.08-.45.1C201.17,480.94,141.3,481.35,114.65,422.44Zm179,80.15c15.15-.13,30.52-.13,45.66,0v34H293.65ZM633,559.45l-5.71,22.84H5.71L0,559.45Zm-29,79.93H29l-6.85-34.26H610.82L604,639.38Z"/><path class="cls-1" d="M76.71,194.1a22.84,22.84,0,1,1,22.84,22.83A22.84,22.84,0,0,1,76.71,194.1Z"/><path class="cls-1" d="M522,239.77a22.84,22.84,0,1,1-22.84,22.83A22.83,22.83,0,0,1,522,239.77Z"/><path class="cls-1" d="M179.47,274a11.42,11.42,0,1,1,11.42,11.42A11.42,11.42,0,0,1,179.47,274Z"/></svg>