<svg id="Layer_1" data-name="Layer 1" xmlns="http://www.w3.org/2000/svg" viewBox="0 0 512 511.99"><defs><style>.cls-1{fill:#d3d3d3;}</style></defs><title>generic</title><path class="cls-1" d="M242.52,262.71a9.15,9.15,0,0,1-12.44-13.41l16.77-15.57v-5.15H204.73l-61.37,57a9.15,9.15,0,0,1-12.45-13.41l46.94-43.58H82.28v88.74l21.21-19.69A9.14,9.14,0,0,1,115.93,311L82.28,342.28v5.15H124.4l79.66-74a9.14,9.14,0,0,1,12.44,13.4l-65.22,60.56h95.58V258.69Z" transform="translate(0 -0.01)"/><path class="cls-1" d="M356.56,265.15h36.57v36.58H356.56Z" transform="translate(0 -0.01)"/><path class="cls-1" d="M448,0H64a9.17,9.17,0,0,0-9.15,9.15V36.58H457.13V9.16A9.17,9.17,0,0,0,448,0Z" transform="translate(0 -0.01)"/><path class="cls-1" d="M502.84,144.74v-35h-64a9.15,9.15,0,0,1,0-18.29h53.62L462,54.87H50L19.52,91.44H402.27a9.15,9.15,0,1,1,0,18.29H9.14v35A28.5,28.5,0,0,0,33.85,173.6a27.1,27.1,0,0,0,21.17-7,27.54,27.54,0,0,0,9-20.3v-9.15a9.14,9.14,0,1,1,18.28,0v9.15a27.43,27.43,0,0,0,54.86,0v-9.15a9.15,9.15,0,0,1,18.29,0v9.15a27.43,27.43,0,0,0,54.85,0v-9.15a9.14,9.14,0,0,1,18.28,0v9.15a27.43,27.43,0,0,0,54.86,0v-9.15a9.15,9.15,0,0,1,18.29,0v9.15a27.43,27.43,0,0,0,54.85,0v-9.15a9.15,9.15,0,0,1,18.29,0v9.15a27.43,27.43,0,0,0,54.85,0v-9.15a9.15,9.15,0,0,1,18.29,0v9.15a27.49,27.49,0,0,0,9,20.29,27.17,27.17,0,0,0,21.17,7A28.49,28.49,0,0,0,502.84,144.74Z" transform="translate(0 -0.01)"/><path class="cls-1" d="M475.42,457.14V191.76a44.87,44.87,0,0,1-36.58-18,45.67,45.67,0,0,1-73.13,0,45.69,45.69,0,0,1-73.15,0,45.68,45.68,0,0,1-73.14,0,45.68,45.68,0,0,1-73.14,0,45.67,45.67,0,0,1-73.13,0,44.84,44.84,0,0,1-36.58,18V457.14H301.71V228.58A18.3,18.3,0,0,1,320,210.29H429.7A18.31,18.31,0,0,1,448,228.58V457.14ZM265.14,347.43a18.3,18.3,0,0,1-18.29,18.29H82.28A18.3,18.3,0,0,1,64,347.43V228.58a18.31,18.31,0,0,1,18.28-18.29H246.85a18.31,18.31,0,0,1,18.29,18.29Z" transform="translate(0 -0.01)"/><path class="cls-1" d="M320,457.14H429.7V228.58H320Zm18.29-192a18.31,18.31,0,0,1,18.28-18.29h36.57a18.31,18.31,0,0,1,18.29,18.29v36.57A18.32,18.32,0,0,1,393.13,320H356.56a18.32,18.32,0,0,1-18.28-18.29Zm9.14,73.14h9.14a9.15,9.15,0,1,1,0,18.29h-9.14a9.15,9.15,0,0,1,0-18.29Z" transform="translate(0 -0.01)"/><path class="cls-1" d="M512,484.57a9.17,9.17,0,0,0-9.15-9.14H9.14A9.16,9.16,0,0,0,0,484.57V512H512Z" transform="translate(0 -0.01)"/></svg>