<svg id="Layer_1" data-name="Layer 1" xmlns="http://www.w3.org/2000/svg" viewBox="0 0 496.02734 512">
  <title>hours</title>
  <path d="M475.83594,334.71484C443.10156,422.76563,357.97266,481.92188,264,481.92188,139.42578,481.92188,38.07813,380.57422,38.07813,256S139.42578,30.07813,264,30.07813A224.18238,224.18238,0,0,1,421.375,93.84766l-29.28125-2.57032-2.625,29.96485,78.81641,6.91015,6.91015-78.8164L445.23047,46.707l-2.29688,26.23828A257.74734,257.74734,0,0,0,378.793,27.10547,256.06152,256.06152,0,0,0,8,256a256.04412,256.04412,0,0,0,496.02734,89.19531Z" transform="translate(-8)"/>
  <path d="M263.62109,98.88672c-86.63281,0-157.11328,70.48047-157.11328,157.11328s70.48047,157.11328,157.11328,157.11328S420.73438,342.63281,420.73438,256,350.25391,98.88672,263.62109,98.88672Zm60.4961,172.15234H248.94141v-107.875h30.07812v77.79688h45.09766Z" transform="translate(-8)"/>
</svg>
