<svg id="Layer_1" data-name="Layer 1" xmlns="http://www.w3.org/2000/svg" viewBox="0 0 46.4 48.46"><defs><style>.cls-1{fill:#6c6e86;}.cls-2{fill:#2c2e3e;}</style></defs><title>logo-blue</title><g id="Group_627" data-name="Group 627"><g id="Group_230" data-name="Group 230"><g id="Group_211" data-name="Group 211"><g id="Group_209" data-name="Group 209"><g id="Group_206" data-name="Group 206"><path id="Path_163" data-name="Path 163" class="cls-1" d="M23.75,10.8l-.7.4V43.3h.7Z"/></g><g id="Group_207" data-name="Group 207"><path id="Path_164" data-name="Path 164" class="cls-1" d="M25.05,10.2l-.7.4V43.3h.7Z"/></g><g id="Group_208" data-name="Group 208"><path id="Path_165" data-name="Path 165" class="cls-1" d="M21.85,43.3h.6V11.5l-.6.3Z"/></g></g><g id="Group_210" data-name="Group 210"><path id="Path_166" data-name="Path 166" class="cls-1" d="M25.65,9.9V43.3h2.6V18.9l3-1.4V43.3h1.8V12.1Z"/></g></g><g id="Group_217" data-name="Group 217"><g id="Group_212" data-name="Group 212"><path id="Path_167" data-name="Path 167" class="cls-1" d="M31.25,43.3h5.8V19.1l-5.8-1.6Z"/></g><g id="Group_216" data-name="Group 216"><g id="Group_213" data-name="Group 213"><path id="Path_168" data-name="Path 168" class="cls-1" d="M29.75,18.2l-.5.2V43.3h.5Z"/></g><g id="Group_214" data-name="Group 214"><path id="Path_169" data-name="Path 169" class="cls-1" d="M30.75,17.7l-.5.3V43.3h.5Z"/></g><g id="Group_215" data-name="Group 215"><path id="Path_170" data-name="Path 170" class="cls-1" d="M28.25,43.3h.6V18.7l-.6.2Z"/></g></g></g><g id="Group_223" data-name="Group 223"><g id="Group_221" data-name="Group 221"><g id="Group_218" data-name="Group 218"><path id="Path_171" data-name="Path 171" class="cls-1" d="M10.35,24.6l-.3.2V43.3h.3Z"/></g><g id="Group_219" data-name="Group 219"><path id="Path_172" data-name="Path 172" class="cls-1" d="M11.15,24.2l-.4.2V43.3h.4Z"/></g><g id="Group_220" data-name="Group 220"><path id="Path_173" data-name="Path 173" class="cls-1" d="M9.25,43.3h.4V24.9l-.4.2Z"/></g></g><g id="Group_222" data-name="Group 222"><path id="Path_174" data-name="Path 174" class="cls-1" d="M11.45,24V43.3h2.7V24.8Z"/></g></g><g id="Group_229" data-name="Group 229"><g id="Group_224" data-name="Group 224"><path id="Path_175" data-name="Path 175" class="cls-1" d="M28.25,43.3V18.9l.6-.3V2.8L19.15,0V43.3h2.7V11.8l3.8-1.9V43.3Z"/></g><g id="Group_228" data-name="Group 228"><g id="Group_225" data-name="Group 225"><path id="Path_176" data-name="Path 176" class="cls-1" d="M16.65,1.2l-.9.4V43.3h.9Z"/></g><g id="Group_226" data-name="Group 226"><path id="Path_177" data-name="Path 177" class="cls-1" d="M18.35.4l-.9.4V43.3h.9Z"/></g><g id="Group_227" data-name="Group 227"><path id="Path_178" data-name="Path 178" class="cls-1" d="M14.15,43.3h.9V2l-.9.4Z"/></g></g></g></g><path id="Path_179" data-name="Path 179" class="cls-2" d="M40.45,40.7A23.09,23.09,0,0,0,28.85,2.8V9.2A17.1,17.1,0,1,1,7,19.64v0a16.94,16.94,0,0,1,2.3-4.4,15.53,15.53,0,0,1,4.8-4.4V3.9a22.39,22.39,0,0,0-7.3,4.9,23.2,23.2,0,0,0,28.7,36.1l1.8,1.7a6.31,6.31,0,0,0,8.91-.2l.09-.1h0Z"/></g></svg>