<?xml version="1.0" encoding="utf-8"?>
<!-- Generator: Adobe Illustrator 23.0.1, SVG Export Plug-In . SVG Version: 6.00 Build 0)  -->
<svg version="1.1" id="Layer_1" xmlns="http://www.w3.org/2000/svg" xmlns:xlink="http://www.w3.org/1999/xlink" x="0px" y="0px"
	 viewBox="0 0 46.4 48.5" style="enable-background:new 0 0 46.4 48.5;" xml:space="preserve">
<style type="text/css">
	.st0{fill:#CFCDCD;}
</style>
<path id="Path_166" class="st0" d="M25.7,9.9v33.4h2.6V18.9l3-1.4v25.8h1.8V12.1L25.7,9.9z"/>
<path id="Path_164" class="st0" d="M25.1,10.2l-0.7,0.4v32.7h0.7V10.2z"/>
<path id="Path_165" class="st0" d="M21.9,43.3h0.6V11.5l-0.6,0.3V43.3z"/>
<path id="Path_163" class="st0" d="M23.8,10.8l-0.7,0.4v32.1h0.7V10.8z"/>
<path id="Path_169" class="st0" d="M30.8,17.7L30.3,18v25.3h0.5V17.7z"/>
<path id="Path_170" class="st0" d="M28.3,43.3h0.6V18.7l-0.6,0.2V43.3z"/>
<path id="Path_168" class="st0" d="M29.8,18.2l-0.5,0.2v24.9h0.5V18.2z"/>
<path id="Path_167" class="st0" d="M31.3,43.3h5.8V19.1l-5.8-1.6V43.3z"/>
<path id="Path_171" class="st0" d="M10.4,24.6l-0.3,0.2v18.5h0.3V24.6z"/>
<path id="Path_172" class="st0" d="M11.2,24.2l-0.4,0.2v18.9h0.4V24.2z"/>
<path id="Path_173" class="st0" d="M9.3,43.3h0.4V24.9l-0.4,0.2V43.3z"/>
<path id="Path_174" class="st0" d="M11.5,24v19.3h2.7V24.8L11.5,24z"/>
<path id="Path_175" class="st0" d="M28.3,43.3V18.9l0.6-0.3V2.8L19.2,0v43.3h2.7V11.8l3.8-1.9v33.4H28.3z"/>
<path id="Path_177" class="st0" d="M18.4,0.4l-0.9,0.4v42.5h0.9V0.4z"/>
<path id="Path_178" class="st0" d="M14.2,43.3h0.9V2l-0.9,0.4V43.3z"/>
<path id="Path_176" class="st0" d="M16.7,1.2l-0.9,0.4v41.7h0.9V1.2z"/>
<path id="Path_179" class="st0" d="M40.5,40.7c8.5-9.5,7.8-24.1-1.7-32.6c-2.8-2.5-6.2-4.4-9.9-5.3v6.4c8.9,3.1,13.6,12.9,10.4,21.8
	c-3.1,8.9-12.9,13.6-21.8,10.4C8.6,38.3,3.9,28.5,7,19.6l0,0c0.5-1.6,1.3-3.1,2.3-4.4c1.3-1.8,2.9-3.3,4.8-4.4V3.9
	C11.4,5,8.9,6.7,6.9,8.8c-9.1,9-9.1,23.7-0.1,32.8c7.7,7.7,19.6,9.1,28.8,3.3l1.8,1.7c2.5,2.4,6.5,2.3,8.9-0.2c0,0,0.1-0.1,0.1-0.1
	l0,0L40.5,40.7z"/>
</svg>
