<svg id="Capa_1" data-name="Capa 1" xmlns="http://www.w3.org/2000/svg" viewBox="0 0 511 512"><title>magnifier</title><path d="M306.89,0C194.07,0,102.28,91.79,102.28,204.61s91.79,204.61,204.61,204.61S511.5,317.43,511.5,204.61,419.71,0,306.89,0Zm0,349.33c-79.8,0-144.72-64.92-144.72-144.72S227.09,59.88,306.89,59.88s144.72,64.93,144.72,144.73S386.69,349.33,306.89,349.33Z" transform="translate(-0.5 0)"/><path d="M306.89,89.83A114.78,114.78,0,1,0,421.67,204.61,114.91,114.91,0,0,0,306.89,89.83Zm15,199.62H291.92V259.5h29.94Zm0-82.42v22.53H291.92v-49.9h15a15,15,0,1,0-15-15H262A44.92,44.92,0,1,1,321.86,207Z" transform="translate(-0.5 0)"/><path d="M43.17,405.89,13.61,435.45A44.85,44.85,0,0,0,77,498.88l29.56-29.56Z" transform="translate(-0.5 0)"/><path d="M112.85,336.22l-48.5,48.5,63.43,63.43,48.69-48.69A236.16,236.16,0,0,1,112.85,336.22Z" transform="translate(-0.5 0)"/></svg>