<svg id="Capa_1" data-name="Capa 1" xmlns="http://www.w3.org/2000/svg" viewBox="0 0 202.171 218.082">
  <title>puzzle</title>
  <path d="M202.059,109.561a28.93442,28.93442,0,0,0-21.65-9.387,33.72739,33.72739,0,0,0-16.453,4.089V45.084H115.275a33.19273,33.19273,0,0,0,3.571-15.491,28.57857,28.57857,0,0,0-9.388-21.484A32.539,32.539,0,0,0,87.485,0,32.54308,32.54308,0,0,0,65.512,8.108a28.57857,28.57857,0,0,0-9.388,21.484,33.125,33.125,0,0,0,3.664,15.491H7.957v66.702l4.551-2.281a28.06644,28.06644,0,0,1,13.53-3.339,22.78008,22.78008,0,0,1,17.11,7.415,27.82048,27.82048,0,0,1,.054,35.906,22.70913,22.70913,0,0,1-17.09,7.416,29.045,29.045,0,0,1-13.633-3.256L7.956,151.43v66.652H67.432l-2.634-4.513A26.94447,26.94447,0,0,1,61,199.433a22.63108,22.63108,0,0,1,7.415-17.017,26.5674,26.5674,0,0,1,17.953-6.549,26.57529,26.57529,0,0,1,17.953,6.564,22.60943,22.60943,0,0,1,7.416,16.998,27.44105,27.44105,0,0,1-3.705,14.163l-2.565,4.488h58.489V158.909a34.09947,34.09947,0,0,0,16.453,3.983,28.75643,28.75643,0,0,0,21.567-9.387,33.82055,33.82055,0,0,0,.083-43.944Z" transform="translate(-7.956)"/>
</svg>
