<svg id="Capa_1" data-name="Capa 1" xmlns="http://www.w3.org/2000/svg" viewBox="0 0 202.17 218.09"><defs><style>.cls-1{fill:#ef6461;}</style></defs><title>puzzle-red</title><path class="cls-1" d="M194.1,109.56a28.93,28.93,0,0,0-21.65-9.39A33.75,33.75,0,0,0,156,104.26V45.08H107.32a33.15,33.15,0,0,0,3.57-15.49A28.56,28.56,0,0,0,101.5,8.11,32.49,32.49,0,0,0,79.53,0a32.49,32.49,0,0,0-22,8.11,28.56,28.56,0,0,0-9.39,21.48,33.08,33.08,0,0,0,3.66,15.49H0v66.7l4.55-2.28a28,28,0,0,1,13.53-3.33,22.74,22.74,0,0,1,17.11,7.41,27.83,27.83,0,0,1,.06,35.91,22.72,22.72,0,0,1-17.09,7.41,29,29,0,0,1-13.64-3.25L0,151.43v66.65H59.48l-2.64-4.51A27,27,0,0,1,53,199.43a22.65,22.65,0,0,1,7.42-17,26.52,26.52,0,0,1,17.95-6.55,26.53,26.53,0,0,1,18,6.56,22.62,22.62,0,0,1,7.42,17,27.48,27.48,0,0,1-3.7,14.16l-2.57,4.49H156V158.91a34,34,0,0,0,16.45,4A28.72,28.72,0,0,0,194,153.5a33.81,33.81,0,0,0,.08-43.94Z" transform="translate(0 0)"/></svg>