<svg id="Layer_1" data-name="Layer 1" xmlns="http://www.w3.org/2000/svg" viewBox="0 0 511.44 512"><title>savings</title><path d="M277,98.32c0,4.12,0,13.62,14.76,17.44V80.87C277,84.7,277,94.2,277,98.32Z" transform="translate(-0.28 0)"/><path d="M322.17,149.45v34.89c14.74-3.82,14.76-13.33,14.76-17.45S336.91,153.27,322.17,149.45Z" transform="translate(-0.28 0)"/><path d="M307,0C233.84,0,174.35,59.49,174.35,132.6S233.84,265.21,307,265.21,439.57,205.72,439.57,132.6,380.08,0,307,0Zm40.38,127.74c13.09,8.73,20,22.27,20,39.15s-6.91,30.43-20,39.15c-6.93,4.63-15.36,7.71-25.17,9.23v15H291.75v-15c-9.81-1.52-18.24-4.6-25.17-9.23-13.09-8.72-20-22.26-20-39.15H277c0,4.12,0,13.62,14.76,17.45V146.7c-9.81-1.53-18.24-4.61-25.17-9.23-13.09-8.73-20-22.27-20-39.15s6.92-30.43,20-39.15c6.93-4.63,15.36-7.71,25.17-9.23V35h30.42v15c9.81,1.52,18.24,4.6,25.17,9.23,13.09,8.72,20,22.26,20,39.15H336.93c0-4.12,0-13.62-14.76-17.45v37.64C332,120,340.41,123.12,347.34,127.74Z" transform="translate(-0.28 0)"/><polygon points="0 305.68 0 512 75 512 75 481.58 75 472.8 75 336.1 75 307.92 75 305.68 0 305.68"/><polygon points="500.16 354.18 373.6 388.96 265.78 362.67 272.99 333.12 373.14 357.54 373.37 357.48 373.37 318.42 233.35 283.36 105.42 303.2 105.42 305.68 105.42 333.98 105.42 438.79 105.42 469.39 179.35 461.1 322.59 501.31 511.44 397.23 500.16 354.18"/></svg>