<svg id="Layer_1" data-name="Layer 1" xmlns="http://www.w3.org/2000/svg" viewBox="0 0 512 512"><title>start-up</title><path d="M74.74,328.08a15,15,0,0,0,2.8,17.34l3.67,3.67c10.59-12.56,23-26.19,37.93-41.17,1.06-1.06,2.15-1.57,3.21-2.54l-23.6-23.61C85,306.59,77,323.54,74.74,328.08Z" transform="translate(0 0)"/><path d="M204,392.77c-15,15-28.61,27.39-41.1,38l5,5a15,15,0,0,0,17.46,2.73c7.77-4,20-9.75,45.93-24.2l-24.71-24.71C205.56,390.63,205.05,391.72,204,392.77Z" transform="translate(0 0)"/><path d="M196,315.94c-10.84-10.84-41.32-1.12-55.64,13.19C92.44,377,70.8,411,61.09,431.06a15,15,0,0,0,20,20c19.61-9.52,53.16-31,101.64-79.53C198.52,355.81,206.29,326.24,196,316Z" transform="translate(0 0)"/><path d="M46.82,199.71,4.39,242.14a15,15,0,0,0,14.49,25.09C41.81,261.09,62,258.49,75.57,262a805.42,805.42,0,0,1,62.1-94.73C125,159.09,82.9,163.63,46.82,199.71Z" transform="translate(0 0)"/><path d="M253.89,510.39a15,15,0,0,0,17.35-2.78l42.43-42.43c32.85-32.86,38.63-75.25,31.18-88.69a856.07,856.07,0,0,1-94.8,61.62c2.09,11.8.7,23.25-4.25,56.69A15,15,0,0,0,253.89,510.39Z" transform="translate(0 0)"/><path d="M297.8,150.47a45,45,0,1,0,63.64,0A45.06,45.06,0,0,0,297.8,150.47Z" transform="translate(0 0)"/><path d="M511.12,14.63A15,15,0,0,0,497.28.8C460.44-2,423.74,2.55,387.77,13.55c2.71,24.72,15.49,51.46,37.31,73.28,22.08,22.08,49.55,34.85,74.71,37.24A310.31,310.31,0,0,0,511.12,14.63Z" transform="translate(0 0)"/><path d="M403.87,108c-25-25-40.2-54.9-45.09-84C268.7,60.94,182.48,141.61,114.34,254.94l33.85,33.85c23.13-9.39,51.21-11.87,69,5.93s15.3,45.91,5.92,69l35,35C345.29,346.14,446.8,263.34,490,153.19,460.11,148.68,429.24,133.41,403.87,108ZM382.65,235.32a75,75,0,1,1,0-106.07A75.08,75.08,0,0,1,382.65,235.32Z" transform="translate(0 0)"/></svg>