<svg xmlns="http://www.w3.org/2000/svg" viewBox="0 0 1001 481">

<g id="dontshow">
<rect class="dontShow" width="1001" height="481"/>
</g>
<g id="first">
<path pathlength="1" class="cls-1" d="M550.22,70.59l-.46.65,3.6.36,3.6-4.32,26.28,7.2-1.44,5.76H585l2.52-5s29.16,7.2,20.52,15.48l-.36,3.24,4,.72,3.24-4.32,24.84,7.56-1.44,4.68,6.84-4.32,23.76,6.84v5l2.16.36,2.16-3.24,24.48,6.12v6.12l2.16-.36,2.88-4.68,23.4,7.56v4.68l3.24.72,3.6-3.6,4.32-.36v6.12h2.52l2.16-4.68,24.48,7.2v5.76l2.16-4.32,2.88.72L783.76,481"/>
<path pathlength="1" class="cls-1" d="M384,481,423.4,160.88v-3.6l6.84-15.12H432v-2.52l8.28-19.8h2.16l-2.16-2.16,10.44-20.16h1.8v-1.8l9-21.6h3.24V71.6h-2.16l7.2-16.92S474.52,45,490,48.56v4.68l4,.36,1.8-2.88,26.64,7.56-2.52,5.4h5l1.8-5,26.64,7.56-3.14,4.39"/>
<path pathlength="1" class="cls-1" d="M714.78,118.32l9.58-15.4h2.52V100.4l7.2-13V71.6l9-14.4h4l-1.8-2.88L757.12,36H760V33.8h-1.8l10.44-16.2s12.6-8.28,18.72-2.88v5.76l1.8-.36,4.68-4.68L823,25.16v6.48l6.84-5.76L857.2,33.8v8.28l5.76-5.4,28.8,7.56v7.2l4-5.4,28.08,8.64v5.76l6.12-5.76s8.64,4,7.2,11.88L980,481"/>
<line pathlenth="1" class="cls-1" x1="432.04" y1="142.16" x2="392.68" y2="481"/>
<line pathlenth="1" class="cls-1" x1="442.48" y1="119.84" x2="402.28" y2="481"/>
<line pathlenth="1" class="cls-1" x1="452.68" y1="101.96" x2="411.88" y2="481"/>
<line pathlenth="1" class="cls-1" x1="460.36" y1="77" x2="422.2" y2="481"/>
<line pathlenth="1" class="cls-1" x1="456.52" y1="481" x2="495.76" y2="50.72"/>
<line pathlenth="1" class="cls-1" x1="490" y1="53.24" x2="449.32" y2="481"/>
<line pathlenth="1" class="cls-1" x1="493.96" y1="481" x2="526.72" y2="58.64"/>
<line pathlenth="1" class="cls-1" x1="519.88" y1="63.68" x2="487.24" y2="481"/>
<line pathlenth="1" class="cls-1" x1="530.78" y1="481" x2="556.96" y2="67.28"/>
<line pathlenth="1" class="cls-1" x1="549.76" y1="71.24" x2="526.12" y2="481"/>
<line pathlenth="1" class="cls-1" x1="566.44" y1="481" x2="587.56" y2="75.2"/>
<line pathlenth="1" class="cls-1" x1="581.8" y1="80.24" x2="561.16" y2="481"/>
<line pathlenth="1" class="cls-1" x1="599.8" y1="481" x2="614.92" y2="90.32"/>
<line pathlenth="1" class="cls-1" x1="607.72" y1="93.92" x2="591.88" y2="481"/>
<line pathlenth="1" class="cls-1" x1="632.86" y1="481" x2="645.16" y2="98.24"/>
<line pathlenth="1" class="cls-1" x1="638.32" y1="102.56" x2="627.4" y2="481"/>
<line pathlenth="1" class="cls-1" x1="668.92" y1="481" x2="673.24" y2="107.24"/>
<line pathlenth="1" class="cls-1" x1="668.92" y1="110.12" x2="663.4" y2="481"/>
<line pathlenth="1" class="cls-1" x1="701.8" y1="481" x2="702.76" y2="114.44"/>
<line pathlenth="1" class="cls-1" x1="697.72" y1="119.48" x2="697" y2="481"/>
<line pathlenth="1" class="cls-1" x1="742.12" y1="481" x2="737.32" y2="129.56"/>
<line pathlenth="1" class="cls-1" x1="742" y1="124.88" x2="747.88" y2="481"/>
<line pathlenth="1" class="cls-1" x1="780.04" y1="481" x2="768.64" y2="133.52"/>
<polyline pathlenth="1" class="cls-1" points="766.6 140.84 766.48 137.84 775.24 481"/>
<polyline pathlenth="1" class="cls-1" points="757.12 35.96 760.23 130.24 763.72 130.24 760 35.96"/>
<polyline pathlenth="1" class="cls-1" points="747.04 57.2 747.88 126.61 744.66 125.66 743.08 57.2"/>
<line pathlenth="1" class="cls-1" x1="728.68" y1="481" x2="726.16" y2="126.68"/>
<line pathlenth="1" class="cls-1" x1="733.01" y1="124.4" x2="736.36" y2="481"/>
<line pathlenth="1" class="cls-1" x1="726.88" y1="100.4" x2="727.6" y2="126.61"/>
<line pathlenth="1" class="cls-1" x1="724.36" y1="102.92" x2="724.36" y2="121.42"/>
<line pathlenth="1" class="cls-1" x1="812.68" y1="481" x2="793.84" y2="15.44"/>
<line pathlenth="1" class="cls-1" x1="787.36" y1="20.48" x2="807.4" y2="481"/>
<line pathlenth="1" class="cls-1" x1="853.78" y1="481" x2="829.84" y2="25.88"/>
<line pathlenth="1" class="cls-1" x1="823" y1="31.64" x2="847.19" y2="481"/>
<line pathlenth="1" class="cls-1" x1="893.32" y1="481" x2="862.96" y2="36.68"/>
<line pathlenth="1" class="cls-1" x1="857.2" y1="42.08" x2="888.04" y2="481"/>
<line pathlenth="1" class="cls-1" x1="933.64" y1="481" x2="895.72" y2="46.04"/>
<line pathlenth="1" class="cls-1" x1="891.76" y1="51.44" x2="926.92" y2="481"/>
<line pathlenth="1" class="cls-1" x1="971.56" y1="481" x2="929.92" y2="54.68"/>
<line pathlenth="1" class="cls-1" x1="923.8" y1="60.44" x2="964.74" y2="481"/>
</g>
</svg>
