<svg id="Layer_1" data-name="Layer 1" xmlns="http://www.w3.org/2000/svg" viewBox="0 0 272.8 51.7">
  <defs>
    <style>
      .cls-1 {
        isolation: isolate;
      }

      .cls-2 {
        fill: #2c2e3e;
      }

      .cls-3 {
        fill: #6c6e86;
      }
    </style>
  </defs>
  <title>logo</title>
  <g id="ArchitectureQuote" class="cls-1">
    <g class="cls-1">
      <path class="cls-2" d="M63,31.7H57.2l-.9,2.7H52.4L58,19h4.3l5.6,15.4h-4Zm-2.9-8.6-1.9,5.7H62Z"/>
      <path class="cls-2" d="M73.9,34.4H70.2V22.1h3.7v2.1A4.7,4.7,0,0,1,77.8,22v4H76.7c-1.8,0-2.8.6-2.8,2.7Z"/>
      <path class="cls-2" d="M85.5,22a5.6,5.6,0,0,1,5.9,4.6h-4a1.8,1.8,0,0,0-1.9-1.4c-1.4,0-2.3,1-2.3,3.1s.9,3.1,2.3,3.1A1.8,1.8,0,0,0,87.4,30h4a5.7,5.7,0,0,1-5.9,4.6c-3.6,0-6.1-2.4-6.1-6.3S81.9,22,85.5,22Z"/>
      <path class="cls-2" d="M94,18.1h3.7v5.7a4.5,4.5,0,0,1,3.8-1.8c2.8,0,4.7,1.9,4.7,5.2v7.2h-3.8V27.7a2.3,2.3,0,0,0-2.3-2.6,2.4,2.4,0,0,0-2.4,2.6v6.7H94Z"/>
      <path class="cls-2" d="M109,18.8a2.1,2.1,0,0,1,2.2-2,2.1,2.1,0,1,1-2.2,2Zm.4,3.3h3.7V34.4h-3.7Z"/>
      <path class="cls-2" d="M117,25.3h-1.5V22.1H117v-3h3.8v3h2.4v3.2h-2.4v4.9c0,.7.3,1,1.1,1h1.3v3.2h-1.9c-2.5,0-4.3-1.1-4.3-4.3Z"/>
      <path class="cls-2" d="M131.3,34.6a5.9,5.9,0,0,1-6.2-6.3,5.9,5.9,0,0,1,6.2-6.3c3.6,0,6.2,2.3,6.2,6.1,0,.3-.1.7-.1,1.1h-8.5a2.2,2.2,0,0,0,2.3,2.3,2,2,0,0,0,2-1.2h4A5.8,5.8,0,0,1,131.3,34.6Zm-2.4-7.5h4.7a2.1,2.1,0,0,0-2.3-2.1A2.3,2.3,0,0,0,128.9,27.1Z"/>
      <path class="cls-2" d="M145.4,22a5.6,5.6,0,0,1,5.9,4.6h-4a1.9,1.9,0,0,0-2-1.4c-1.3,0-2.2,1-2.2,3.1s.9,3.1,2.2,3.1a1.9,1.9,0,0,0,2-1.4h4a5.7,5.7,0,0,1-5.9,4.6,5.9,5.9,0,0,1-6.2-6.3A5.9,5.9,0,0,1,145.4,22Z"/>
      <path class="cls-2" d="M154.4,25.3h-1.5V22.1h1.5v-3h3.8v3h2.5v3.2h-2.5v4.9c0,.7.3,1,1.1,1h1.4v3.2h-1.9c-2.6,0-4.4-1.1-4.4-4.3Z"/>
      <path class="cls-2" d="M175.4,34.4h-3.7V32.7a4.5,4.5,0,0,1-3.7,1.8c-2.9,0-4.8-1.9-4.8-5.2V22.1H167v6.7c0,1.7.9,2.6,2.3,2.6s2.4-.9,2.4-2.6V22.1h3.7Z"/>
      <path class="cls-2" d="M182.5,34.4h-3.8V22.1h3.8v2.1a4.5,4.5,0,0,1,3.8-2.2v4h-1c-1.8,0-2.8.6-2.8,2.7Z"/>
      <path class="cls-2" d="M194.1,34.6a5.9,5.9,0,0,1-6.2-6.3,5.9,5.9,0,0,1,6.2-6.3,5.7,5.7,0,0,1,6.1,6.1v1.1h-8.5a2.2,2.2,0,0,0,2.3,2.3,1.9,1.9,0,0,0,1.9-1.2H200A5.8,5.8,0,0,1,194.1,34.6Zm-2.4-7.5h4.7a2.1,2.1,0,0,0-2.3-2.1A2.2,2.2,0,0,0,191.7,27.1Z"/>
      <path class="cls-2" d="M214.9,33l3.4,4.1h-4.5l-2-2.7-1.7.2a8,8,0,1,1,0-15.9,7.7,7.7,0,0,1,7.9,7.9A7.8,7.8,0,0,1,214.9,33Zm-4.8-1.9c2.4,0,4-1.8,4-4.5s-1.6-4.4-4-4.4-4.1,1.7-4.1,4.4S207.6,31.1,210.1,31.1Z"/>
      <path class="cls-2" d="M232.8,34.4H229V32.7a4.3,4.3,0,0,1-3.7,1.8c-2.8,0-4.8-1.9-4.8-5.2V22.1h3.8v6.7c0,1.7.9,2.6,2.3,2.6s2.4-.9,2.4-2.6V22.1h3.8Z"/>
      <path class="cls-2" d="M241.6,34.6a6,6,0,0,1-6.3-6.3,6.1,6.1,0,0,1,6.4-6.3,6,6,0,0,1,6.3,6.3A6.1,6.1,0,0,1,241.6,34.6Zm0-3.3c1.4,0,2.6-1,2.6-3s-1.2-3.1-2.5-3.1-2.6,1-2.6,3.1S240.3,31.3,241.6,31.3Z"/>
      <path class="cls-2" d="M251.2,25.3h-1.5V22.1h1.5v-3H255v3h2.4v3.2H255v4.9c0,.7.3,1,1.1,1h1.3v3.2h-1.9c-2.5,0-4.3-1.1-4.3-4.3Z"/>
      <path class="cls-2" d="M265.5,34.6a5.9,5.9,0,0,1-6.2-6.3,5.9,5.9,0,0,1,6.2-6.3,5.7,5.7,0,0,1,6.1,6.1v1.1h-8.5a2.2,2.2,0,0,0,2.3,2.3,2,2,0,0,0,2-1.2h4A5.8,5.8,0,0,1,265.5,34.6Zm-2.4-7.5h4.7a2.1,2.1,0,0,0-2.3-2.1A2.3,2.3,0,0,0,263.1,27.1Z"/>
    </g>
  </g>
  <g id="Group_627" data-name="Group 627">
    <g id="Group_230" data-name="Group 230">
      <g id="Group_211" data-name="Group 211">
        <g id="Group_209" data-name="Group 209">
          <g id="Group_206" data-name="Group 206">
            <path id="Path_163" data-name="Path 163" class="cls-3" d="M23.8,10.8l-.7.4V43.3h.7Z"/>
          </g>
          <g id="Group_207" data-name="Group 207">
            <path id="Path_164" data-name="Path 164" class="cls-3" d="M25.1,10.2l-.7.4V43.3h.7Z"/>
          </g>
          <g id="Group_208" data-name="Group 208">
            <path id="Path_165" data-name="Path 165" class="cls-3" d="M21.9,43.3h.6V11.5l-.6.3Z"/>
          </g>
        </g>
        <g id="Group_210" data-name="Group 210">
          <path id="Path_166" data-name="Path 166" class="cls-3" d="M25.7,9.9V43.3h2.6V18.9l3-1.4V43.3h1.8V12.1Z"/>
        </g>
      </g>
      <g id="Group_217" data-name="Group 217">
        <g id="Group_212" data-name="Group 212">
          <path id="Path_167" data-name="Path 167" class="cls-3" d="M31.3,43.3h5.8V19.1l-5.8-1.6Z"/>
        </g>
        <g id="Group_216" data-name="Group 216">
          <g id="Group_213" data-name="Group 213">
            <path id="Path_168" data-name="Path 168" class="cls-3" d="M29.8,18.2l-.5.2V43.3h.5Z"/>
          </g>
          <g id="Group_214" data-name="Group 214">
            <path id="Path_169" data-name="Path 169" class="cls-3" d="M30.8,17.7l-.5.3V43.3h.5Z"/>
          </g>
          <g id="Group_215" data-name="Group 215">
            <path id="Path_170" data-name="Path 170" class="cls-3" d="M28.3,43.3h.6V18.7l-.6.2Z"/>
          </g>
        </g>
      </g>
      <g id="Group_223" data-name="Group 223">
        <g id="Group_221" data-name="Group 221">
          <g id="Group_218" data-name="Group 218">
            <path id="Path_171" data-name="Path 171" class="cls-3" d="M10.4,24.6l-.3.2V43.3h.3Z"/>
          </g>
          <g id="Group_219" data-name="Group 219">
            <path id="Path_172" data-name="Path 172" class="cls-3" d="M11.2,24.2l-.4.2V43.3h.4Z"/>
          </g>
          <g id="Group_220" data-name="Group 220">
            <path id="Path_173" data-name="Path 173" class="cls-3" d="M9.3,43.3h.4V24.9l-.4.2Z"/>
          </g>
        </g>
        <g id="Group_222" data-name="Group 222">
          <path id="Path_174" data-name="Path 174" class="cls-3" d="M11.5,24V43.3h2.7V24.8Z"/>
        </g>
      </g>
      <g id="Group_229" data-name="Group 229">
        <g id="Group_224" data-name="Group 224">
          <path id="Path_175" data-name="Path 175" class="cls-3" d="M28.3,43.3V18.9l.6-.3V2.8L19.2,0V43.3h2.7V11.8l3.8-1.9V43.3Z"/>
        </g>
        <g id="Group_228" data-name="Group 228">
          <g id="Group_225" data-name="Group 225">
            <path id="Path_176" data-name="Path 176" class="cls-3" d="M16.7,1.2l-.9.4V43.3h.9Z"/>
          </g>
          <g id="Group_226" data-name="Group 226">
            <path id="Path_177" data-name="Path 177" class="cls-3" d="M18.4.4l-.9.4V43.3h.9Z"/>
          </g>
          <g id="Group_227" data-name="Group 227">
            <path id="Path_178" data-name="Path 178" class="cls-3" d="M14.2,43.3h.9V2l-.9.4Z"/>
          </g>
        </g>
      </g>
    </g>
    <path id="Path_179" data-name="Path 179" class="cls-2" d="M40.5,40.7A23.1,23.1,0,0,0,28.9,2.8V9.2A17.1,17.1,0,1,1,7.1,19.6a16.7,16.7,0,0,1,2.3-4.4,15.5,15.5,0,0,1,4.8-4.4V3.9A22.3,22.3,0,0,0,6.9,8.8,23.2,23.2,0,0,0,35.6,44.9l1.8,1.7a6.3,6.3,0,0,0,9-.3h0Z"/>
  </g>
</svg>
